# xmcd
#
# Track frame offsets:
#	150
#	13987
#	25376
#	36128
#	46716
#	57999
#	68802
#	79270
#	90541
#	101675
#	112816
#	123622
#	134943
#	147580
#	160662
#	173189
#	184211
#	194280
#	204680
#	216457
#
# Disc length: 3059 seconds
# Revision: 1
# Processed by: cddbd v1.5.2PL0 Copyright (c) Steve Scherf et al.
# Submitted via: dBpowerAMP V12.0
#
DISCID=2f0bf114
DTITLE=Patsy Cline - Patsy Cline- 20 Greatest Hits
DYEAR=2001
DGENRE=Country
TTITLE0=Church, A Courtroom, And Then Goodbye
TTITLE1=Crazy Dreams
TTITLE2=Gotta Lot Of Rhythm In My Soul
TTITLE3=He Will Do For You
TTITLE4=Hidin' Out
TTITLE5=Honky Tonk Merry Go Round
TTITLE6=How Can I Face Tomorrow
TTITLE7=Hungry For Love
TTITLE8=I Can't Forget
TTITLE9=I Cried All The Way To The Altar
TTITLE10=I Don't Wanta
TTITLE11=Dear God [Aka I Go To Church On Sunday]
TTITLE12=Just A Closer Walk With Thee
TTITLE13=Life's Railway To Heaven
TTITLE14=A Poor Man's Roses (Or A Rich Man's Gold)
TTITLE15=Stop The World (And Let Me Off)
TTITLE16=Three Cigarettes In An Ashtray
TTITLE17=Walking Dream
TTITLE18=Walkin' After Midnight
TTITLE19=Yes, I Understand
EXTD=
EXTT0=
EXTT1=
EXTT2=
EXTT3=
EXTT4=
EXTT5=
EXTT6=
EXTT7=
EXTT8=
EXTT9=
EXTT10=
EXTT11=
EXTT12=
EXTT13=
EXTT14=
EXTT15=
EXTT16=
EXTT17=
EXTT18=
EXTT19=
PLAYORDER=
